<svg id="Logo" xmlns="http://www.w3.org/2000/svg" viewBox="0 0 484.82 120.01"><defs><style>.cls-1{fill:#0ea7e7;}.cls-2{fill:#fff;}</style></defs><title>Tagline With Logo 1.0.0</title><polygon class="cls-1" points="0 24.83 43.11 0 86.22 24.83 86.22 74.49 43.11 99.32 0 74.49 0 24.83"/><path class="cls-2" d="M188.43,90.21v42.65h-6.17V82.76h8.88L213,125.64V82.76h6.16v50.1h-8.87Z" transform="translate(-71.22 -58.03)"/><path class="cls-2" d="M265,118.54c0,8.28-5.15,15.08-18,15.08s-18-6.8-18-15.08V97.49c0-8.28,5.15-15.07,18-15.07s18,6.79,18,15.07Zm-29.56-.15c0,6.12,3.73,9.56,11.57,9.56s11.57-3.44,11.57-9.56V97.64c0-6.12-3.73-9.55-11.57-9.55s-11.57,3.43-11.57,9.55Z" transform="translate(-71.22 -58.03)"/><path class="cls-2" d="M292.47,82.76c12.26,0,16.1,6.4,16.1,14.37V118.5c0,8-3.84,14.36-16.1,14.36H274.94V82.76Zm-11.06,44.31h10.83c7.6,0,9.86-3.16,9.86-9V97.58c0-5.87-2.26-9-9.86-9H281.41Z" transform="translate(-71.22 -58.03)"/><path class="cls-2" d="M318,82.76h29.49v5.8h-23v15.72H345.8v5.79H324.44v17h23.09v5.79H318Z" transform="translate(-71.22 -58.03)"/><path class="cls-2" d="M362.13,118.64c0,6.93,2.68,9.17,10.8,9.17a76.33,76.33,0,0,0,11.62-1l.67,5.52a64.39,64.39,0,0,1-12.51,1.34c-12.15,0-17-5.22-17-14.61V97.11c0-9.38,4.84-14.6,17-14.6a63.63,63.63,0,0,1,12.51,1.34l-.67,5.52a75.07,75.07,0,0,0-11.62-1.05c-8.12,0-10.8,2.24-10.8,9.17Z" transform="translate(-71.22 -58.03)"/><path class="cls-2" d="M412.37,114.73H400.11v18.13h-6.47V82.76h19.11c10.76,0,14.52,4.67,14.52,12.34v7.22c0,5.94-2.18,10-8,11.66l13,18.88h-7.45Zm.15-26.17H400.11V109h12.41c6.17,0,8.28-1.73,8.28-6.62V95.18C420.8,90.21,418.69,88.56,412.52,88.56Z" transform="translate(-71.22 -58.03)"/><path class="cls-2" d="M477.59,132.86h-6.54l-4.14-12H445.62l-4.06,12H435l16.93-50.1h8.73ZM456.3,87.43l-8.95,27.76h17.91Z" transform="translate(-71.22 -58.03)"/><path class="cls-2" d="M484.21,132.86V82.76H514v5.8H490.68v16.7h21.74v5.79H490.68v21.81Z" transform="translate(-71.22 -58.03)"/><path class="cls-2" d="M534.6,88.56h-15v-5.8H556v5.8h-15v44.3H534.6Z" transform="translate(-71.22 -58.03)"/><polygon class="cls-2" points="64.25 25.6 64.25 37.57 74.75 43.61 65.92 48.66 55.53 42.68 55.53 30.62 64.25 25.6"/><polygon class="cls-2" points="65.75 36.7 65.75 25.42 75.54 31.08 75.54 42.33 65.75 36.7"/><polygon class="cls-2" points="21.96 25.6 21.96 37.57 11.46 43.61 20.29 48.66 30.68 42.68 30.68 30.62 21.96 25.6"/><polygon class="cls-2" points="20.46 36.7 20.46 25.42 10.68 31.08 10.68 42.33 20.46 36.7"/><polygon class="cls-2" points="43.09 74.1 53.53 80.13 53.53 70.05 43.09 64.02 32.71 70.02 32.71 80.1 43.09 74.1"/><polygon class="cls-2" points="43.09 75.83 33.33 81.48 43.11 87.12 52.88 81.49 43.09 75.83"/><polygon class="cls-2" points="43.86 49.32 75.56 67.51 75.56 56.51 53.56 43.83 53.55 18.4 43.86 12.83 43.86 49.32"/><polygon class="cls-2" points="42.36 49.32 42.36 12.84 32.69 18.4 32.68 43.83 10.68 56.51 10.68 67.5 42.36 49.32"/><polygon class="cls-2" points="43.11 50.62 11.37 68.84 21.11 74.47 43.13 61.76 65.12 74.46 74.85 68.83 43.11 50.62"/><path class="cls-1" d="M157.42,173.08a9.52,9.52,0,0,1,.12-1.3l1.54-8.88c.65-3.76,2.84-6,8.33-6a25.46,25.46,0,0,1,6.45,1l-1,3.89A25.6,25.6,0,0,0,167,161c-2.38,0-3.18,1-3.49,2.86L162.2,171a6.17,6.17,0,0,0-.1,1c0,1.26.62,2,2.56,2a15.89,15.89,0,0,0,3-.34l1-5.61H173l-1.54,8.67a18.56,18.56,0,0,1-7.16,1.32C159.51,178,157.42,176.07,157.42,173.08Z" transform="translate(-71.22 -58.03)"/><path class="cls-1" d="M187.59,173.69h-7l-1.85,4h-4.91l9.87-20.54h6.2l2.93,20.54H188Zm-5.34-3.76h4.91l-.87-8.94Z" transform="translate(-71.22 -58.03)"/><path class="cls-1" d="M214.39,166.48l-5.12,8.57h-4.63l-1.73-8.57-2.68,11.25h-4.47l4.87-20.54h4.57l2.56,13.27,7.49-13.27h4.54l-2.41,20.54h-4.44Z" transform="translate(-71.22 -58.03)"/><path class="cls-1" d="M224.94,157.19h12.93l-.71,4h-8.39l-.68,3.92h7.74l-.71,4h-7.74l-.83,4.62h8.39l-.68,4H221.33Z" transform="translate(-71.22 -58.03)"/><path class="cls-1" d="M248.14,176.69l1-3.49a18.59,18.59,0,0,0,5.58,1c2.41,0,3-.46,3.27-2.25a5.5,5.5,0,0,0,.12-1.08c0-.93-.61-1.17-3.11-1.82-3.43-.87-4.69-2.07-4.69-4.47a12.15,12.15,0,0,1,.25-2.23c.89-4.56,2.12-5.49,7.71-5.49a28.13,28.13,0,0,1,6,.81l-.8,3.79a28.1,28.1,0,0,0-5.55-.71c-2.22,0-2.66.31-2.93,1.94-.06.47-.13.84-.13,1.11,0,1,.62,1.15,3,1.76,3.82,1,4.87,2.13,4.87,4.23a11.75,11.75,0,0,1-.25,2.19c-.74,4.22-2.22,6-8.05,6A18,18,0,0,1,248.14,176.69Z" transform="translate(-71.22 -58.03)"/><path class="cls-1" d="M269,157.19h12.92l-.71,4h-8.39l-.68,3.92h7.74l-.7,4H271.4l-.83,4.62H279l-.68,4H265.36Z" transform="translate(-71.22 -58.03)"/><path class="cls-1" d="M291.76,171.32h-3.12l-1.11,6.41H283l3.61-20.54h7.86c4.41,0,6.57,1.67,6.57,4.69a10.2,10.2,0,0,1-.12,1.27l-.43,2.46c-.44,2.56-1.36,4.2-3.92,5.09l3.88,7h-5.08Zm4.56-7.77a6,6,0,0,0,.09-.87c0-1.05-.64-1.48-2.22-1.48h-3.76l-1.08,6.2h3.89c2,0,2.53-.74,2.8-2.31Z" transform="translate(-71.22 -58.03)"/><path class="cls-1" d="M306.3,177.73l-2.19-20.54h4.63l1.48,16.63,7.22-16.63h4.93l-9.31,20.54Z" transform="translate(-71.22 -58.03)"/><path class="cls-1" d="M325.67,157.19h12.92l-.71,4h-8.39l-.68,3.92h7.74l-.7,4H328.1l-.83,4.62h8.39l-.68,4H322.06Z" transform="translate(-71.22 -58.03)"/><path class="cls-1" d="M347.64,171.32h-3.12l-1.11,6.41h-4.53l3.6-20.54h7.87c4.41,0,6.57,1.67,6.57,4.69a10.2,10.2,0,0,1-.12,1.27l-.44,2.46c-.43,2.56-1.35,4.2-3.91,5.09l3.88,7h-5.09Zm4.56-7.77a6,6,0,0,0,.09-.87c0-1.05-.65-1.48-2.22-1.48h-3.76l-1.08,6.2h3.89c2,0,2.52-.74,2.8-2.31Z" transform="translate(-71.22 -58.03)"/><path class="cls-1" d="M358.2,176.69l1-3.49a18.59,18.59,0,0,0,5.58,1c2.41,0,3-.46,3.27-2.25a5.5,5.5,0,0,0,.12-1.08c0-.93-.61-1.17-3.11-1.82-3.43-.87-4.69-2.07-4.69-4.47a12.15,12.15,0,0,1,.25-2.23c.89-4.56,2.12-5.49,7.71-5.49a28.13,28.13,0,0,1,6,.81l-.8,3.79a28.1,28.1,0,0,0-5.55-.71c-2.22,0-2.66.31-2.93,1.94-.06.47-.13.84-.13,1.11,0,1,.62,1.15,3,1.76,3.82,1,4.87,2.13,4.87,4.23a11.75,11.75,0,0,1-.25,2.19c-.74,4.22-2.22,6-8.05,6A18,18,0,0,1,358.2,176.69Z" transform="translate(-71.22 -58.03)"/><path class="cls-1" d="M385.59,177.73l3.64-20.54h7.84c4.44,0,6.07,2.44,6.07,5a7.3,7.3,0,0,1-.09,1.14l-1.6,9.07c-.47,2.71-1.58,5.3-7.47,5.3Zm12.93-14.8c0-1.11-.65-1.73-2.59-1.73h-2.87l-2.22,12.52H394c2.44,0,2.87-.92,3.15-2.56l1.29-7.4A3.74,3.74,0,0,0,398.52,162.93Z" transform="translate(-71.22 -58.03)"/><path class="cls-1" d="M405,172.58a5.17,5.17,0,0,1,.09-1l1.48-8.48c.68-3.83,3-6.27,8.83-6.27,4.87,0,7.15,2.78,7.15,5.59a5.11,5.11,0,0,1-.09.92L421,171.78c-.68,3.92-3,6.26-9.07,6.26C407.07,178,405,175.36,405,172.58Zm13-9.65c0-1.27-.84-2-3-2-2.34,0-3.58,1-3.88,2.66l-1.39,7.83a6.18,6.18,0,0,0-.06.71c0,1.23.8,1.94,3,1.94s3.58-.89,3.89-2.65l1.38-7.83A5.12,5.12,0,0,0,418,162.93Z" transform="translate(-71.22 -58.03)"/><path class="cls-1" d="M430.76,163.64l-2.43,14.09h-4.45l3.61-20.54H433l4.51,14.9,2.62-14.9h4.41l-3.61,20.54h-5.58Z" transform="translate(-71.22 -58.03)"/><path class="cls-1" d="M449,157.19h12.92l-.71,4h-8.39l-.68,3.92h7.74l-.71,4H451.4l-.83,4.62H459l-.68,4H445.36Z" transform="translate(-71.22 -58.03)"/><path class="cls-1" d="M480.52,171.32H477.4l-1.11,6.41h-4.53l3.61-20.54h7.86c4.41,0,6.57,1.67,6.57,4.69a10.2,10.2,0,0,1-.12,1.27l-.43,2.46c-.43,2.56-1.36,4.2-3.92,5.09l3.89,7h-5.09Zm4.56-7.77a6.39,6.39,0,0,0,.1-.87c0-1.05-.65-1.48-2.23-1.48h-3.76l-1.08,6.2H482c2,0,2.53-.74,2.81-2.31Z" transform="translate(-71.22 -58.03)"/><path class="cls-1" d="M495,157.19h4.54L496,177.73h-4.54Z" transform="translate(-71.22 -58.03)"/><path class="cls-1" d="M501.05,173.08a9.54,9.54,0,0,1,.13-1.3l1.54-8.88c.65-3.76,2.84-6,8.33-6a25.37,25.37,0,0,1,6.44,1l-1,3.89a25.62,25.62,0,0,0-5.9-.77c-2.37,0-3.17,1-3.48,2.86L505.83,171a6.12,6.12,0,0,0-.09,1c0,1.26.62,2,2.56,2a15.69,15.69,0,0,0,3-.34l1-5.61h4.26l-1.54,8.67A18.56,18.56,0,0,1,507.9,178C503.15,178,501.05,176.07,501.05,173.08Z" transform="translate(-71.22 -58.03)"/><path class="cls-1" d="M530.9,169.41h-6.57l-1.45,8.32h-4.54L522,157.19h4.54L525,165.43h6.57l1.45-8.24h4.53L534,177.73h-4.53Z" transform="translate(-71.22 -58.03)"/><path class="cls-1" d="M546.85,177.73h-4.57l2.9-16.53h-5.55l.71-4H556l-.71,4h-5.55Z" transform="translate(-71.22 -58.03)"/></svg>