<svg xmlns="http://www.w3.org/2000/svg" viewBox="0 0 956.49 99.32"><defs><style>.w{fill:#fff}</style></defs><g><path fill="#0ea7e7" d="M471.67 24.83L514.78 0l43.11 24.83v49.66l-43.11 24.83-43.11-24.83V24.83z"/><path d="M588.88 32.18v42.65h-6.17v-50.1h8.88l21.81 42.88V24.73h6.17v50.1h-8.87zM665.47 60.51c0 8.28-5.15 15.07-18 15.07s-18-6.79-18-15.07v-21c0-8.29 5.15-15.08 18-15.08s18 6.79 18 15.08zm-29.56-.15c0 6.12 3.73 9.55 11.57 9.55s11.57-3.43 11.57-9.55V39.61c0-6.12-3.73-9.55-11.57-9.55s-11.57 3.43-11.57 9.55zM692.92 24.73c12.26 0 16.09 6.39 16.09 14.37v21.36c0 8-3.83 14.37-16.09 14.37h-17.53v-50.1zM681.86 69h10.83c7.6 0 9.86-3.16 9.86-9V39.55c0-5.87-2.26-9-9.86-9h-10.83zM718.42 24.73h29.49v5.79h-23v15.72h21.36V52h-21.38v17H748v5.79h-29.58zM762.58 60.61c0 6.93 2.68 9.16 10.8 9.16a76.22 76.22 0 0011.62-1l.67 5.51a63.63 63.63 0 01-12.51 1.34c-12.15 0-17-5.21-17-14.6V39.08c0-9.39 4.84-14.6 17-14.6a63.63 63.63 0 0112.51 1.34l-.67 5.51a76.22 76.22 0 00-11.62-1c-8.12 0-10.8 2.23-10.8 9.16zM812.82 56.7h-12.26v18.13h-6.47v-50.1h19.11c10.76 0 14.52 4.66 14.52 12.34v7.22c0 5.94-2.18 10-8 11.66l13 18.88h-7.45zm.18-26.18h-12.44V51H813c6.17 0 8.28-1.73 8.28-6.62v-7.24c-.03-4.96-2.14-6.62-8.28-6.62zM878 74.83h-6.5l-4.14-12h-21.29l-4.06 12h-6.55l16.93-50.1h8.73zm-21.25-45.44l-9 27.76h17.91zM884.66 74.83v-50.1h29.79v5.79h-23.32v16.7h21.74V53h-21.74v21.83zM935.05 30.52h-15v-5.79h36.41v5.79h-15v44.31h-6.47zM535.92 25.6v11.97l10.5 6.04-8.82 5.05-10.39-5.98V30.62l8.71-5.02z" class="w"/><path d="M537.42 36.7V25.42l9.79 5.66v11.25l-9.79-5.63zM493.64 25.6v11.97l-10.5 6.04 8.82 5.05 10.39-5.98V30.62l-8.71-5.02z" class="w"/><path d="M492.14 36.7V25.42l-9.79 5.66v11.25l9.79-5.63zM514.77 74.1l10.44 6.03-.01-10.08-10.43-6.03-10.38 6V80.1l10.38-6z" class="w"/><path d="M514.77 75.83L505 81.48l9.78 5.64 9.77-5.63-9.78-5.66zM515.53 49.32l31.71 18.19v-11l-22.01-12.68-.01-25.43-9.69-5.57v36.49zM514.03 49.32V12.84l-9.67 5.56-.01 25.43-22 12.68V67.5l31.68-18.18zM514.78 50.62l-31.74 18.22 9.75 5.63 22.01-12.71 21.99 12.7 9.73-5.63-31.74-18.21zM30 39.44q0 7.22-4.91 11.07t-13.9 3.85H3.47v20.57H0v-49.8h12.2q17.8 0 17.8 14.31zM3.47 51.36h6.85q8.41 0 12.16-2.78t3.75-9q0-5.76-3.54-8.53t-11-2.78H3.47zM86.17 50q0 11.86-5.93 18.76t-16.35 6.85q-10.39 0-16.32-6.89t-5.93-18.83q0-11.88 6-18.72T64 24.34q10.42 0 16.32 6.87T86.17 50zm-40.74 0q0 10.7 4.76 16.54t13.7 5.84q9 0 13.75-5.79T82.39 50q0-10.76-4.75-16.5T64 27.72q-8.9 0-13.71 5.79T45.43 50zM140.79 74.93h-2.86L127 36.51q-1.36-4.74-2-7.77c-.36 2-.88 4.25-1.55 6.81s-4.33 15.7-11 39.38h-2.93l-13.73-49.8h3.64l8.73 32.09c.34 1.29.65 2.49 1 3.59s.56 2.14.8 3.1.45 1.9.65 2.8.37 1.8.53 2.7q.81-4.62 3.47-14.07l8.52-30.21h3.85l10 34.68q1.74 6 2.49 9.67.43-2.45 1.14-5.21t10.51-39.14h3.51zM194.05 74.93h-27.22v-49.8h27.22v3.2h-23.74v18.84h22.41v3.2h-22.41v21.36h23.74zM212.29 53.23v21.7h-3.47v-49.8h11.85q9.27 0 13.7 3.42t4.43 10.31a13.45 13.45 0 01-2.64 8.44 14.6 14.6 0 01-8 4.94l13.53 22.69h-4.19l-12.84-21.7zm0-3h9.51q6.3 0 9.77-2.81t3.48-8.29q0-5.68-3.41-8.28t-11.1-2.59h-8.25zM281 74.93h-27.23v-49.8H281v3.2h-23.76v18.84h22.42v3.2h-22.42v21.36H281zM333.56 49.55q0 12.54-6.57 19t-19.32 6.42h-11.92V25.13h13.46q11.93 0 18.14 6.23t6.21 18.19zm-3.78.14q0-10.69-5.43-16.1t-16-5.4h-9.17v43.68h8.25q22.35 0 22.35-22.18zM370.11 25.13h13.66q9.24 0 13.56 3.13t4.33 9.47a10.26 10.26 0 01-2.66 7.21 12.82 12.82 0 01-7.72 3.69v.21q6 .88 8.77 3.76c1.88 1.92 2.81 4.6 2.81 8 0 4.58-1.52 8.12-4.56 10.59s-7.36 3.71-12.95 3.71h-15.24zm3.48 22.17h11c4.67 0 8.08-.77 10.2-2.33s3.18-4 3.18-7.31-1.19-5.72-3.59-7.22-6-2.25-10.71-2.25h-10.08zm0 3.07v21.5h11.72q13.83 0 13.83-11.24 0-10.26-14.58-10.26zM428.79 52.38l14.58-27.25h3.75l-16.59 30.56v19.24H427V56l-16.71-30.87h4z" class="w"/></g></svg>