<?xml version="1.0" encoding="utf-8"?>
<!-- Generator: Adobe Illustrator 25.2.0, SVG Export Plug-In . SVG Version: 6.00 Build 0)  -->
<svg version="1.1" id="Logogram" xmlns="http://www.w3.org/2000/svg" xmlns:xlink="http://www.w3.org/1999/xlink" x="0px" y="0px"
	 viewBox="0 0 32 32" style="enable-background:new 0 0 32 32;" xml:space="preserve">
<style type="text/css">
	.Arched_x0020_Green{fill:url(#SVGID_1_);stroke:#FFFFFF;stroke-width:0.25;stroke-miterlimit:1;}
	.st0{fill:#0EA7E7;}
	.st1{fill:#FFFFFF;}
</style>
<linearGradient id="SVGID_1_" gradientUnits="userSpaceOnUse" x1="-36.0005" y1="191.6682" x2="-35.2934" y2="190.9611">
	<stop  offset="0" style="stop-color:#1EAB4B"/>
	<stop  offset="0.9831" style="stop-color:#19361A"/>
</linearGradient>
<g>
	<g>
		<polygon class="st0" points="2.1,8 16,0 29.9,8 29.9,24 16,32 2.1,24 		"/>
	</g>
	<polygon class="st1" points="22.8,8.2 22.8,12.1 26.2,14 23.4,15.7 20,13.7 20,9.9 	"/>
	<polygon class="st1" points="23.3,11.8 23.3,8.2 26.5,10 26.5,13.6 	"/>
	<polygon class="st1" points="9.2,8.2 9.2,12.1 5.8,14 8.7,15.7 12,13.7 12,9.9 	"/>
	<polygon class="st1" points="8.7,11.8 8.7,8.2 5.6,10 5.6,13.6 	"/>
	<polygon class="st1" points="16,23.9 19.4,25.8 19.4,22.6 16,20.6 12.7,22.6 12.7,25.8 	"/>
	<polygon class="st1" points="16,24.4 12.9,26.2 16,28.1 19.2,26.2 	"/>
	<polygon class="st1" points="16.3,15.9 26.5,21.7 26.5,18.2 19.4,14.1 19.4,5.9 16.3,4.1 	"/>
	<polygon class="st1" points="15.8,15.9 15.8,4.1 12.7,5.9 12.7,14.1 5.6,18.2 5.6,21.7 	"/>
	<polygon class="st1" points="16,16.3 5.8,22.2 8.9,24 16,19.9 23.1,24 26.2,22.2 	"/>
</g>
</svg>
