<?xml version="1.0" encoding="utf-8"?>
<!-- Generator: Adobe Illustrator 25.2.0, SVG Export Plug-In . SVG Version: 6.00 Build 0)  -->
<svg version="1.1" id="Logo" xmlns="http://www.w3.org/2000/svg" xmlns:xlink="http://www.w3.org/1999/xlink" x="0px" y="0px"
	 viewBox="0 0 144 32" style="enable-background:new 0 0 144 32;" xml:space="preserve">
<style type="text/css">
	.st0{fill:#0EA7E7;}
	.st1{fill:#FFFFFF;}
</style>
<g>
	<polygon class="st0" points="0.2,9.9 13,2.6 25.7,9.9 25.7,24.6 13,32 0.2,24.6 	"/>
	<path class="st1" d="M34.9,12.1v12.6h-1.8V9.9h2.6l6.5,12.7V9.9H44v14.8h-2.6L34.9,12.1z"/>
	<path class="st1" d="M57.6,20.5c0,2.5-1.5,4.5-5.3,4.5S47,23,47,20.5v-6.2c0-2.5,1.5-4.5,5.3-4.5s5.3,2,5.3,4.5V20.5z M48.9,20.5
		c0,1.8,1.1,2.8,3.4,2.8c2.3,0,3.4-1,3.4-2.8v-6.1c0-1.8-1.1-2.8-3.4-2.8c-2.3,0-3.4,1-3.4,2.8V20.5z"/>
	<path class="st1" d="M65.7,9.9c3.6,0,4.8,1.9,4.8,4.3v6.3c0,2.4-1.1,4.3-4.8,4.3h-5.2V9.9H65.7z M62.5,23h3.2
		c2.3,0,2.9-0.9,2.9-2.7v-6.1c0-1.7-0.7-2.7-2.9-2.7h-3.2C62.5,11.5,62.5,23,62.5,23z"/>
	<path class="st1" d="M73.3,9.9H82v1.7h-6.8v4.7h6.3V18h-6.3v5H82v1.7h-8.8V9.9H73.3z"/>
	<path class="st1" d="M86.4,20.5c0,2.1,0.8,2.7,3.2,2.7c0.9,0,2.3-0.1,3.4-0.3l0.2,1.6c-1.1,0.2-2.6,0.4-3.7,0.4c-3.6,0-5-1.5-5-4.3
		v-6.5c0-2.8,1.4-4.3,5-4.3c1.1,0,2.6,0.2,3.7,0.4L93,11.9c-1.1-0.2-2.6-0.3-3.4-0.3c-2.4,0-3.2,0.7-3.2,2.7V20.5z"/>
	<path class="st1" d="M101.2,19.4h-3.6v5.4h-1.9V9.9h5.7c3.2,0,4.3,1.4,4.3,3.7v2.1c0,1.8-0.6,3-2.4,3.5l3.9,5.6H105L101.2,19.4z
		 M101.3,11.6h-3.7v6.1h3.7c1.8,0,2.5-0.5,2.5-2v-2.1C103.7,12.1,103.1,11.6,101.3,11.6z"/>
	<path class="st1" d="M120.6,24.7h-1.9l-1.2-3.6h-6.3l-1.2,3.6h-2l5-14.8h2.6L120.6,24.7z M114.3,11.3l-2.7,8.2h5.3L114.3,11.3z"/>
	<path class="st1" d="M122.5,24.7V9.9h8.8v1.7h-6.9v4.9h6.4v1.7h-6.4v6.5H122.5z"/>
	<path class="st1" d="M137.4,11.6H133V9.9h10.8v1.7h-4.4v13.1h-1.9V11.6H137.4z"/>
	<polygon class="st1" points="19.2,10.2 19.2,13.7 22.3,15.5 19.7,17 16.7,15.2 16.7,11.7 	"/>
	<polygon class="st1" points="19.7,13.5 19.7,10.1 22.6,11.8 22.6,15.1 	"/>
	<polygon class="st1" points="6.7,10.2 6.7,13.7 3.6,15.5 6.2,17 9.3,15.2 9.3,11.7 	"/>
	<polygon class="st1" points="6.3,13.5 6.3,10.1 3.4,11.8 3.4,15.1 	"/>
	<polygon class="st1" points="13,24.5 16.1,26.3 16.1,23.3 13,21.5 9.9,23.3 9.9,26.3 	"/>
	<polygon class="st1" points="13,25 10.1,26.7 13,28.4 15.9,26.7 	"/>
	<polygon class="st1" points="13.2,17.2 22.6,22.6 22.6,19.3 16.1,15.6 16.1,8 13.2,6.4 	"/>
	<polygon class="st1" points="12.8,17.2 12.8,6.4 9.9,8 9.9,15.6 3.4,19.3 3.4,22.6 	"/>
	<polygon class="st1" points="13,17.6 3.6,23 6.5,24.6 13,20.9 19.5,24.6 22.4,23 	"/>
	<path class="st1" d="M36.7,1.8c0,0.6-0.2,1-0.6,1.3c-0.4,0.3-0.9,0.5-1.7,0.5h-0.9v2.5h-0.4v-6h1.5C35.9,0.1,36.7,0.7,36.7,1.8z
		 M33.5,3.3h0.8c0.7,0,1.2-0.1,1.5-0.3s0.4-0.6,0.4-1.1s-0.1-0.8-0.4-1c-0.3-0.2-0.7-0.3-1.3-0.3h-1V3.3z"/>
	<path class="st1" d="M43.4,3.1c0,0.9-0.2,1.7-0.7,2.2s-1.1,0.8-1.9,0.8c-0.8,0-1.5-0.3-1.9-0.8C38.3,4.8,38,4,38,3.1
		s0.2-1.7,0.7-2.2c0.5-0.6,1.2-0.9,2-0.9s1.5,0.3,1.9,0.8C43.1,1.4,43.4,2.2,43.4,3.1z M38.5,3.1c0,0.9,0.2,1.5,0.6,2
		c0.4,0.5,0.9,0.7,1.6,0.7c0.7,0,1.3-0.2,1.6-0.7c0.4-0.5,0.6-1.1,0.6-2s-0.2-1.5-0.6-2c-0.4-0.5-0.9-0.7-1.6-0.7
		c-0.7,0-1.3,0.2-1.6,0.7C38.7,1.6,38.5,2.3,38.5,3.1z"/>
	<path class="st1" d="M49.9,6.1h-0.3l-1.3-4.6C48.1,1.1,48,0.8,48,0.6c0,0.2-0.1,0.5-0.2,0.8c-0.1,0.3-0.5,1.9-1.3,4.7h-0.3
		l-1.6-5.9H45L46,4c0,0.2,0.1,0.3,0.1,0.4s0.1,0.3,0.1,0.4s0.1,0.2,0.1,0.3c0,0.1,0,0.2,0.1,0.3c0.1-0.4,0.2-0.9,0.4-1.7l1-3.6h0.5
		l1.2,4.1c0.1,0.5,0.2,0.9,0.3,1.2c0-0.2,0.1-0.4,0.1-0.6s0.5-1.8,1.3-4.7h0.4L49.9,6.1z"/>
	<path class="st1" d="M56.2,6.1H53v-6h3.2v0.4h-2.8v2.2h2.7v0.4h-2.7v2.5h2.8V6.1z"/>
	<path class="st1" d="M58.4,3.5v2.6H58v-6h1.4c0.7,0,1.3,0.1,1.6,0.4c0.4,0.3,0.5,0.7,0.5,1.2c0,0.4-0.1,0.7-0.3,1s-0.5,0.5-1,0.6
		L61.8,6h-0.5l-1.5-2.6L58.4,3.5L58.4,3.5z M58.4,3.1h1.1c0.5,0,0.9-0.1,1.2-0.3s0.4-0.6,0.4-1c0-0.5-0.1-0.8-0.4-1
		c-0.3-0.2-0.7-0.3-1.3-0.3h-1V3.1z"/>
	<path class="st1" d="M66.6,6.1h-3.2v-6h3.2v0.4h-2.8v2.2h2.7v0.4h-2.7v2.5h2.8V6.1z"/>
	<path class="st1" d="M72.9,3.1c0,1-0.3,1.8-0.8,2.3s-1.3,0.8-2.3,0.8h-1.4V0.1H70c0.9,0,1.7,0.2,2.2,0.7S72.9,2.1,72.9,3.1z
		 M72.4,3.1c0-0.9-0.2-1.5-0.6-1.9s-1.1-0.6-1.9-0.6h-1.1v5.2h1C71.5,5.7,72.4,4.8,72.4,3.1z"/>
	<path class="st1" d="M77.2,0.1h1.6c0.7,0,1.3,0.1,1.6,0.4C80.8,0.8,81,1.1,81,1.6c0,0.3-0.1,0.6-0.3,0.9c-0.2,0.2-0.5,0.4-0.9,0.4
		l0,0c0.5,0.1,0.8,0.2,1,0.4s0.3,0.5,0.3,1s-0.2,1-0.5,1.3C80.2,5.9,79.7,6,79.1,6h-1.8L77.2,0.1L77.2,0.1z M77.6,2.8h1.3
		c0.6,0,1-0.1,1.2-0.3c0.3-0.2,0.4-0.5,0.4-0.9S80.4,1,80.1,0.8s-0.7-0.3-1.3-0.3h-1.2V2.8z M77.6,3.2v2.6H79c1.1,0,1.6-0.4,1.6-1.3
		c0-0.8-0.6-1.2-1.7-1.2L77.6,3.2L77.6,3.2z"/>
	<path class="st1" d="M84.2,3.4l1.7-3.2h0.4l-2,3.6v2.3H84V3.8l-2-3.7h0.5L84.2,3.4z"/>
</g>
</svg>
