<!-- Copyright © 2012-2021 Nodecraft Inc. All Rights Reserved. This file is being used with permission. -->
<svg version="1.1" id="Logo" xmlns="http://www.w3.org/2000/svg" x="0" y="0" viewBox="0 0 155 32" xml:space="preserve"><style>.st1{fill:#282a29}.st2{fill:#fff}</style><path fill="#0ea7e7" d="M0 8l13.9-8 13.9 8v16l-13.9 8L0 24z"/><path class="st1" d="M37.7 10.4V24h-2V8h2.8l7 13.7V8h2v16h-2.8l-7-13.6zM62.2 19.3c0 2.6-1.6 4.8-5.7 4.8s-5.7-2.2-5.7-4.8v-6.7c0-2.6 1.6-4.8 5.7-4.8s5.7 2.2 5.7 4.8v6.7zm-9.5 0c0 2 1.2 3 3.7 3s3.7-1.1 3.7-3v-6.6c0-2-1.2-3-3.7-3s-3.7 1.1-3.7 3v6.6zM70.9 8c3.9 0 5.1 2 5.1 4.6v6.8c0 2.5-1.2 4.6-5.1 4.6h-5.6V8h5.6zm-3.5 14.1h3.5c2.4 0 3.1-1 3.1-2.9v-6.5c0-1.9-.7-2.9-3.1-2.9h-3.5v12.3zM79 8h9.4v1.8h-7.3v5h6.8v1.8h-6.8V22h7.4v2H79V8zM93.1 19.4c0 2.2.9 2.9 3.4 2.9 1 0 2.5-.1 3.7-.3l.2 1.8c-1.1.3-2.8.4-4 .4-3.9 0-5.4-1.7-5.4-4.7v-7c0-3 1.5-4.7 5.4-4.7 1.2 0 2.9.2 4 .4l-.2 1.8c-1.2-.2-2.8-.3-3.7-.3-2.6 0-3.4.7-3.4 2.9v6.8zM109.1 18.2h-3.9V24h-2.1V8h6.1c3.4 0 4.6 1.5 4.6 3.9v2.3c0 1.9-.7 3.2-2.5 3.7l4.1 6H113l-3.9-5.7zm.1-8.4h-4v6.5h4c2 0 2.6-.6 2.6-2.1V12c0-1.6-.7-2.2-2.6-2.2zM130 24h-2.1l-1.3-3.8h-6.8l-1.3 3.8h-2.1l5.4-16h2.8l5.4 16zm-6.8-14.5l-2.9 8.9h5.7l-2.8-8.9zM132.1 24V8h9.5v1.8h-7.4v5.3h6.9V17h-6.9v7h-2.1zM148.2 9.8h-4.8V8H155v1.8h-4.8V24h-2.1V9.8z"/><path class="st2" d="M20.7 8.2v3.9l3.4 1.9-2.9 1.7-3.3-2V9.9z"/><path class="st2" d="M21.2 11.8V8.2l3.1 1.8v3.6zM7.1 8.2v3.9L3.7 14l2.8 1.7 3.4-2V9.9z"/><path class="st2" d="M6.6 11.8V8.2L3.4 10v3.6zM13.9 23.9l3.3 1.9v-3.2l-3.3-2-3.4 2v3.2z"/><path class="st2" d="M13.9 24.4l-3.2 1.8 3.2 1.9 3.1-1.8zM14.1 15.9l10.2 5.8v-3.5l-7-4.1V5.9l-3.2-1.8zM13.6 15.9V4.1l-3.1 1.8v8.2l-7.1 4.1v3.5zM13.9 16.3L3.7 22.2 6.8 24l7.1-4.1L21 24l3.1-1.8z"/></svg>